<?xml version="1.0" encoding="UTF-8"?>
<svg id="Layer_1" data-name="Layer 1" xmlns="http://www.w3.org/2000/svg" viewBox="0 0 171.68 176.82">
  <defs>
    <style>
      .cls-1 {
        fill: #231f20;
      }

      .cls-2 {
        fill: #fff;
      }

      .cls-3 {
        fill: #00306b;
      }

      .cls-4 {
        fill: none;
      }

      .cls-5 {
        fill: #e03643;
      }

      .cls-6 {
        fill: #f58020;
      }
    </style>
  </defs>
  <rect class="cls-4" width="171.68" height="176.82"/>
  <g>
    <path class="cls-5" d="M120.01,108.72l-22.42,12.98-22.49-12.99,22.44-12.98,22.46,12.99ZM75.15,109.89l-.54-.31h0s-.03,25.9-.03,25.9l22.49,12.98.02-25.93-22.48-12.96.54.31ZM143.93,96.04l-45.86,26.52-.03,25.89,45.92-26.55-.03-25.86ZM116.95,135.12l-3,1.73,5.5-19.87-7.25,4.19v-3.28s10.21-5.89,10.21-5.89v2.71s-5.46,20.41-5.46,20.41ZM129.79,127.71l-3,1.73v-15.55s-2.65,2.47-2.65,2.47v-3.08s3.9-4.53,3.9-4.53l1.76-1.01v19.97Z"/>
    <path class="cls-1" d="M144.93,67.8L74.35,27.07l-.25-.14-23.95,13.8v27.09s-23.43,13.53-23.43,13.53v27.65l70.83,40.9,47.42-27.42-.03-54.68ZM121.49,81.93l22.44-12.98v25.93l-.04.02-22.4,12.94v-25.91ZM74.1,28.08l69.33,40.01-22.44,12.98h0s0,0,0,0L51.65,41.02l22.45-12.94ZM120.5,81.93v25.91s-.01,0-.01,0h0s-69.33-40.02-69.33-40.02v-25.93s69.34,40.05,69.34,40.05ZM50.66,68.68l45.89,26.49-22.44,12.96-45.89-26.49,22.44-12.96ZM73.59,134.91l-45.88-26.49v-25.92l45.89,26.49v25.91ZM97.07,148.46l-22.49-12.98.03-25.9h0s0,0,0,0l22.48,12.96-.02,25.93ZM75.1,108.71l22.44-12.98,22.46,12.99-22.42,12.98-22.49-12.99ZM98.05,148.45l.03-25.89,45.86-26.52.03,25.86-45.92,26.55ZM73.29,42.57c.56-.91.4-1.84-.38-2.53,2.06.6,4.35.39,6.26-.74,1.38-.82,2.38-1.93,1.64-3.34-.32-.61-.98-1.19-1.98-1.77l-5.87-3.39-16.55,9.55,6.08,3.51c2.99,1.81,7.4,1.75,10.15-.55.36-.3.48-.52.64-.75ZM73.18,33.88l2.64,1.52c.74.43,1.1.88,1.09,1.3,0,.65-.84,1.25-1.77,1.59-.47.17-.98.25-1.43.25-.92.02-1.56-.3-2-.5l-2.88-1.66,4.35-2.5ZM69.3,42.15c-1.48.86-3.17.82-4.65-.04l-2.87-1.65,4.66-2.69,2.82,1.63c1.49.85,1.53,1.9.03,2.75ZM74.72,48.06l6.28,3.63-2.48,1.43-9.05-5.22,16.54-9.55,2.76,1.6-14.06,8.12ZM105.16,53.81c1.52-2.44.42-4.51-2.09-5.94-2.99-1.73-6.81-1.93-10.28-1.2-5.06.8-14.25,6.67-6.83,11.08,5.83,3.3,15.18,1.3,19.2-3.94ZM98.8,55.27c-2.15,1.25-4.64,1.93-7.02,1.72-1.71-.14-4.01-1.01-4.51-2.61-.49-2.93,4.14-4.86,6.54-5.5,5.05-1.47,12.12,2.35,4.99,6.39ZM113.66,67.37c-1.99.83-4.03,1.21-6.11,1.14-7.37-.43-12.52-5.79-4.09-10.52,3.21-1.87,7.07-2.85,10.7-2.48,4.53.33,10.94,4.34,5.41,8.45l-3.01-1.74c1.48-1.3,1.21-2.57-.52-3.55-3.04-1.68-6.8-.77-9.77.94-7.01,3.8-.63,7.91,4.36,6.01l3.03,1.75ZM118.91,76.44l3.48-6.67-2.99.19-5.86,3.38-2.76-1.6,16.55-9.55,2.76,1.59-6.55,3.78,11.72-.79,3.4,1.96-11.81.74-4.57,8.9-3.38-1.95Z"/>
    <path class="cls-6" d="M73.7,38.55c-.92.02-1.56-.3-2-.5l-2.88-1.66,4.35-2.5,2.64,1.52c.74.43,1.1.88,1.09,1.3,0,.65-.84,1.25-1.77,1.59-.47.17-.98.25-1.43.25ZM69.26,39.4l-2.82-1.63-4.66,2.69,2.87,1.65c1.48.86,3.17.9,4.65.04,1.5-.85,1.46-1.9-.03-2.75ZM69.26,39.4l-2.82-1.63-4.66,2.69,2.87,1.65c1.48.86,3.17.9,4.65.04,1.5-.85,1.46-1.9-.03-2.75ZM120.5,81.97v25.88s-.01,0-.01,0l-69.33-40.02v-25.93s69.34,40.05,69.34,40.05v.03ZM143.93,68.96v25.93l-.04.02-22.4,12.94v-25.34s0-.53,0-.53v-.05l.5-.29,21.94-12.69ZM98.8,55.27c-2.15,1.25-4.64,1.93-7.02,1.72-1.71-.14-4.01-1.01-4.51-2.61-.49-2.93,4.14-4.86,6.54-5.5,5.05-1.47,12.12,2.35,4.99,6.39ZM74.1,28.08l-22.45,12.94,69.34,40.05h0s0,0,0,0l22.44-12.98L74.1,28.08ZM62.5,43.87l-6.08-3.51,16.55-9.55,5.87,3.39c1,.58,1.66,1.16,1.98,1.77.73,1.41-.26,2.52-1.64,3.34-1.91,1.12-4.2,1.34-6.26.74.78.69.95,1.62.38,2.53-.16.23-.28.45-.64.75-2.75,2.3-7.16,2.36-10.15.55ZM78.53,53.12l-9.05-5.22,16.54-9.55,2.76,1.6-14.06,8.12,6.28,3.63-2.48,1.43ZM85.96,57.74c-7.43-4.41,1.76-10.28,6.83-11.08,3.47-.73,7.3-.53,10.28,1.2,2.51,1.43,3.61,3.5,2.09,5.94-4.02,5.23-13.37,7.24-19.2,3.94ZM103.46,57.99c3.21-1.87,7.07-2.85,10.7-2.48,4.53.33,10.94,4.34,5.41,8.45l-3.01-1.74c1.48-1.3,1.21-2.57-.52-3.55-3.04-1.68-6.8-.77-9.77.94-7.01,3.8-.63,7.91,4.36,6.01l3.03,1.75c-1.99.83-4.03,1.21-6.11,1.14-7.37-.43-12.52-5.79-4.09-10.52ZM122.29,78.39l-3.38-1.95,3.48-6.67-2.99.19-5.86,3.38-2.76-1.6,16.55-9.55,2.76,1.59-6.55,3.78,11.72-.79,3.4,1.96-11.81.74-4.57,8.9ZM69.29,42.15c-.74.43-1.51.64-2.32.63-.8,0-1.58-.23-2.33-.66l-2.87-1.65,4.66-2.69,2.82,1.63c.75.43,1.13.89,1.14,1.38,0,.49-.36.94-1.1,1.37Z"/>
    <path class="cls-3" d="M46.77,112.01l-1.74-1c.28-1.56,1.86.09,1.74,1ZM53.61,117.89c.36.21.69.19.88-.18.35-.88-.04-2.22-.88-2.71-.35-.21-.68-.17-.87.19-.36.87.04,2.21.87,2.7ZM66.41,123.34l1.74,1c.12-.92-1.46-2.57-1.74-1ZM27.72,82.5l45.89,26.49v25.91s-45.89-26.49-45.89-26.49v-25.92ZM60.56,117.96l-1-.58v4.99s1,.58,1,.58v-4.99ZM65.64,124.77c.3,1.34,2.67,3.75,3.42,1.54l-1.02-.59c-.6.94-1.74-.85-1.64-1.58l2.75,1.59c.05-.63-.01-1.25-.22-1.86-1.3-3.48-4.47-3.1-3.29.89ZM63.66,123.29c0,.35-.3.4-.58.21-.4-.22-.64-.65-.72-1.09l-.99-.57c.07,1.09.77,2.14,1.73,2.69.51.28,1.04.44,1.4,0,.4-.68.15-1.77-.52-2.38-.25-.31-.66-.6-1-.93-.13-.13-.15-.14-.3-.31-.11-.12-.2-.25-.23-.49-.01-.44.49-.25.8.05.21.2.32.46.34.64l.94.54c-.1-1.01-.65-1.9-1.54-2.41-.5-.28-1-.43-1.34,0-.36.55-.14,1.45.26,1.97.22.34.76.81,1.16,1.15.17.15.56.46.59.93ZM59.62,116.52c.21.5,1.08.89,1.06.08,0-.42-.26-.91-.62-1.11-.7-.39-.73.63-.44,1.04ZM56.5,120.6l1,.58v-2.31c-.03-1.2.56-1.13,1.37-.59v-1.41c-.21-.12-.41-.19-.58-.21-.36-.03-.63.12-.81.45l-.1-.98-.89-.51v4.99ZM51.64,119.97l1,.58v-2.82c.34,1.04,1.99,2.5,2.76,1.09.54-1.18.11-2.93-.63-3.98-.46-.66-1.47-1.55-2.13-.76l-.11-.76-.89-.51v7.16ZM48.6,116.04l1,.58v-2.31c-.03-1.2.56-1.13,1.37-.59v-1.41c-.21-.12-.41-.19-.58-.21-.36-.03-.63.12-.81.45l-.1-.98-.89-.51v4.99ZM46.91,110.28c-2.94-3.36-3.68,1.44-1.97,3.44.63.96,2.37,1.82,2.74.25l-1.02-.59c-.6.94-1.74-.85-1.64-1.58l2.75,1.59c.1-1.09-.21-2.23-.86-3.11ZM45.39,102.93c.03.51-.38.66-.78.39-.55-.32-.88-.98-.9-1.61l-1.06-.61c-.01,1,.45,2.08,1.32,2.86.48.44,1.13.82,1.65.77.62-.09.83-.66.83-1.28.03-1.19-.65-2.08-1.42-2.89-.51-.55-1.19-1.06-1.22-1.85-.04-.47.31-.64.7-.37.44.25.72.82.74,1.31l1.07.62c0-1.43-1.04-2.88-2.29-3.27-.13-.04-.29-.08-.43-.07-.61.01-.84.56-.84,1.26,0,1.06.51,1.84,1.26,2.62.33.35.68.68.96,1.05.24.32.41.66.4,1.06ZM42.4,106.12l-.89-.51-.11,1.29-.64-.37v1.12l.64.37c.06,1.18-.27,3.15.62,4.06.31.39.93.7,1.36.95v-1.14c-.24-.15-.75-.38-.87-.63-.22-.3-.07-2.29-.11-2.67l.99.57v-1.12s-.99-.57-.99-.57v-1.35ZM37.7,97.88c0,.11.01.22.02.33.06.48.14.9.25,1.16.12.37.43,1,.85,1.48.54.61,1.28,1.07,1.87,1.07.32,0,.61-.08.87-.48.09-.14.24-.5.26-.95.03-.55.02-1.2.02-1.88,0-1.19,0-2.39,0-2.82l-1-.58v4.26c0,.51-.12.88-.3,1.02-.17.13-.4.1-.64-.01-.24-.11-.51-.3-.71-.57-.13-.17-.23-.35-.31-.55-.13-.34-.19-.73-.19-1.12v-4.26s-1-.58-1-.58c0,0-.01,4.22,0,4.48ZM37.34,104.55l-.88-.51v4.99s.99.58.99.58v-2.66c0-.3.03-.54.11-.64.32-.67,1.15,0,1.34.48.13.25.18.55.19.89.02.34,0,2.55,0,2.89l.99.58v-2.36c.04-1.35-.15-2.16-.66-2.87-.44-.63-1.53-1.39-2.03-.5l-.07-.85ZM32.33,90.31v6.92s1,.58,1,.58v-4.77s2.39,6.15,2.39,6.15l1,.58v-6.92s-1-.58-1-.58v4.78s-2.39-6.16-2.39-6.16l-1-.58ZM32.14,106.54l3.41,1.97v-1.08s-2.41-1.39-2.41-1.39v-1.92s2.19,1.26,2.19,1.26v-1.04s-2.19-1.26-2.19-1.26v-1.81l2.41,1.39v-1.08s-3.41-1.97-3.41-1.97v6.92ZM50.66,68.68l-22.44,12.96,45.89,26.49,22.44-12.96-45.89-26.49Z"/>
    <path class="cls-2" d="M112.2,117.89v3.28s7.25-4.19,7.25-4.19l-5.5,19.87,3-1.73,5.46-20.41v-2.71s-10.21,5.89-10.21,5.89ZM124.14,113.28v3.08s2.65-2.47,2.65-2.47v15.55s3-1.73,3-1.73v-19.97s-1.75,1.01-1.75,1.01l-3.89,4.53ZM44.61,103.32c-.55-.32-.88-.98-.9-1.61l-1.06-.61c-.01,1,.45,2.08,1.32,2.86.48.44,1.13.82,1.65.77.62-.09.83-.66.83-1.28.03-1.19-.65-2.08-1.42-2.89-.51-.55-1.19-1.06-1.22-1.85-.04-.47.31-.64.7-.37.44.25.72.82.74,1.31l1.07.62c0-1.43-1.04-2.88-2.29-3.27-.13-.04-.29-.08-.43-.07-.61.01-.84.56-.84,1.26,0,1.06.51,1.84,1.26,2.62.33.35.68.68.96,1.05.24.32.41.66.4,1.06.03.51-.38.66-.78.39ZM33.33,97.81v-4.77s2.39,6.15,2.39,6.15l1,.58v-6.92s-1-.58-1-.58v4.78s-2.39-6.16-2.39-6.16l-1-.58v6.92s1,.58,1,.58ZM37.72,98.22c.06.48.14.9.25,1.16.12.37.43,1,.85,1.48.54.61,1.28,1.07,1.87,1.07.32,0,.61-.08.87-.48.09-.14.24-.5.26-.95.03-.55.02-1.2.02-1.88,0-1.19,0-2.39,0-2.82l-1-.58v4.26c0,.51-.12.88-.3,1.02-.17.13-.4.1-.64-.01-.24-.11-.51-.3-.71-.57-.13-.17-.23-.35-.31-.55-.13-.34-.19-.73-.19-1.12v-4.26s-1-.58-1-.58c0,0-.01,4.22,0,4.48,0,.11.01.22.02.33ZM35.56,107.43l-2.41-1.39v-1.92s2.19,1.26,2.19,1.26v-1.04s-2.19-1.26-2.19-1.26v-1.81l2.41,1.39v-1.08s-3.41-1.97-3.41-1.97v6.92s3.41,1.97,3.41,1.97v-1.08ZM36.45,109.02l.99.58v-2.66c0-.3.03-.54.11-.64.32-.67,1.15,0,1.34.48.13.25.18.55.19.89.02.34,0,2.55,0,2.89l.99.58v-2.36c.04-1.35-.15-2.16-.66-2.87-.44-.63-1.53-1.39-2.03-.5l-.07-.85-.88-.51v4.99ZM41.4,106.9l-.64-.37v1.12l.64.37c.06,1.18-.27,3.15.62,4.06.31.39.93.7,1.36.95v-1.14c-.24-.15-.75-.38-.87-.63-.22-.3-.07-2.29-.11-2.67l.99.57v-1.12s-.99-.57-.99-.57v-1.35s-.89-.51-.89-.51l-.11,1.29ZM45.02,111.8l2.75,1.59c.1-1.09-.21-2.23-.86-3.11-2.94-3.36-3.68,1.44-1.97,3.44.63.96,2.37,1.82,2.74.25l-1.02-.59c-.6.94-1.74-.85-1.64-1.58ZM46.77,112.01l-1.74-1c.28-1.56,1.86.09,1.74,1ZM49.61,114.32c-.03-1.2.56-1.13,1.37-.59v-1.41c-.21-.12-.41-.19-.58-.21-.36-.03-.63.12-.81.45l-.1-.98-.89-.51v4.99s1,.58,1,.58v-2.31ZM54.77,114.84c-.46-.66-1.47-1.55-2.13-.76l-.11-.76-.89-.51v7.16s1,.58,1,.58v-2.82c.34,1.04,1.99,2.5,2.76,1.09.54-1.18.11-2.93-.63-3.98ZM54.49,117.71c-.19.37-.52.38-.88.18-.83-.49-1.23-1.83-.87-2.7.19-.36.52-.4.87-.19.84.5,1.23,1.83.88,2.71ZM57.5,118.87c-.03-1.2.56-1.13,1.37-.59v-1.41c-.21-.12-.41-.19-.58-.21-.36-.03-.63.12-.81.45l-.1-.98-.89-.51v4.99s1,.58,1,.58v-2.31ZM59.56,122.37l1,.58v-4.99s-1-.58-1-.58v4.99ZM60.68,116.6c0-.42-.26-.91-.62-1.11-.7-.39-.73.63-.44,1.04.21.5,1.08.89,1.06.08ZM66.39,124.15l2.75,1.59c.05-.63-.01-1.25-.22-1.86-1.3-3.48-4.47-3.1-3.29.89.3,1.34,2.67,3.75,3.42,1.54l-1.02-.59c-.6.94-1.74-.85-1.64-1.58ZM68.15,124.35l-1.74-1c.28-1.56,1.86.09,1.74,1ZM63.08,123.5c-.4-.22-.64-.65-.72-1.09l-.99-.57c.07,1.09.77,2.14,1.73,2.69.51.28,1.04.44,1.4,0,.4-.68.15-1.77-.52-2.38-.25-.31-.66-.6-1-.93-.13-.13-.15-.14-.3-.31-.11-.12-.2-.25-.23-.49-.01-.44.49-.25.8.05.21.2.32.46.34.64l.94.54c-.1-1.01-.65-1.9-1.54-2.41-.5-.28-1-.43-1.34,0-.36.55-.14,1.45.26,1.97.22.34.76.81,1.16,1.15.17.15.56.46.59.93,0,.35-.3.4-.58.21Z"/>
  </g>
</svg>